<?xml version="1.0" standalone="no"?>
<!DOCTYPE svg PUBLIC "-//W3C//DTD SVG 20010904//EN"
 "http://www.w3.org/TR/2001/REC-SVG-20010904/DTD/svg10.dtd">
<svg version="1.0" xmlns="http://www.w3.org/2000/svg"
 width="260.000000pt" height="260.000000pt" viewBox="0 0 260.000000 260.000000"
 preserveAspectRatio="xMidYMid meet">
<metadata>
Created by potrace 1.11, written by Peter Selinger 2001-2013
</metadata>
<g transform="translate(0.000000,260.000000) scale(0.100000,-0.100000)"
fill="#000000" stroke="none">
<path d="M1535 2423 c-60 -18 -136 -91 -153 -149 -26 -90 -9 -163 57 -237 l46
-50 -65 -189 -65 -189 -66 -3 c-74 -4 -138 -29 -190 -73 l-34 -30 -227 140
-227 141 1 50 c3 163 -178 257 -301 157 -65 -51 -87 -121 -65 -200 33 -113
158 -168 262 -115 26 13 54 22 62 18 8 -3 111 -65 228 -137 212 -131 213 -132
206 -162 -13 -61 -12 -141 2 -183 9 -24 14 -47 12 -52 -2 -5 -95 -76 -208
-158 l-205 -150 -27 19 c-133 95 -311 51 -385 -95 -64 -126 -11 -280 121 -348
58 -30 165 -30 223 0 114 59 170 181 138 301 l-12 48 208 152 209 152 32 -23
c48 -34 70 -44 127 -58 28 -6 51 -15 51 -18 0 -4 4 -36 9 -72 5 -36 12 -94 16
-130 3 -36 8 -72 10 -80 2 -8 6 -42 10 -75 3 -33 8 -72 11 -86 4 -21 -2 -30
-34 -52 -115 -76 -105 -249 19 -322 53 -31 138 -26 191 11 55 38 83 94 82 160
-2 83 -50 148 -129 174 -19 6 -35 17 -35 24 0 6 -9 82 -20 168 -10 87 -22 185
-26 220 -3 35 -8 66 -11 71 -2 4 16 16 40 26 25 11 66 40 92 64 l47 45 178
-81 179 -82 -4 -40 c-19 -200 188 -345 370 -259 195 92 197 365 3 466 -32 16
-61 22 -113 22 -79 1 -126 -17 -182 -70 l-35 -33 -56 26 c-32 14 -93 42 -137
63 -44 20 -98 44 -120 54 l-41 18 0 83 c-1 70 -5 92 -28 139 -24 49 -105 136
-127 136 -5 0 113 366 125 387 1 0 25 4 55 7 85 9 153 57 197 141 6 11 11 48
13 82 7 168 -142 283 -304 236z m121 -93 c98 -33 122 -161 44 -235 -40 -38
-120 -46 -167 -16 -63 40 -85 130 -46 191 38 61 100 82 169 60z m-1187 -405
c16 -8 34 -27 41 -44 37 -89 -61 -167 -140 -111 -55 39 -47 129 14 156 40 17
51 17 85 -1z m919 -434 c108 -55 151 -171 103 -277 -64 -141 -242 -167 -350
-52 -35 37 -51 83 -51 146 0 145 169 249 298 183z m869 -450 c12 -6 35 -28 50
-48 23 -29 28 -46 28 -92 -1 -100 -62 -163 -158 -165 -101 -1 -174 77 -165
176 12 120 138 187 245 129z m-1741 -242 c37 -23 74 -91 74 -136 0 -45 -25
-97 -60 -127 -39 -32 -68 -40 -127 -33 -136 15 -189 175 -92 275 54 55 137 63
205 21z m930 -378 c26 -2 64 -51 64 -81 0 -60 -34 -99 -88 -100 -55 0 -87 26
-97 81 -9 47 50 112 93 104 10 -2 22 -4 28 -4z"/>
</g>
</svg>
